PathFileType	4	(X/Y/Z)	Patient4_TMGait_0pt3_03_left_09.trc.trc
DataRate	CameraRate	NumFrames	NumMarkers	Units	OrigDataRate	OrigDataStartFrame	OrigNumFrames
52.830188679245	52.830188679245	4	33	mm	52.830188679245	71	       141
Frame#	Time	Sacral			L.Shoulder			Chest			R.Shoulder			Neck			R.ASIS			L.ASIS			R.Thigh.Superior			R.Thigh.Lateral			R.Thigh.Inferior			R.Patella			L.Thigh.Superior			L.Thigh.Lateral			L.Thigh.Inferior			L.Patella			L.Shank.Superior			L.Shank.Lateral			L.Shank.Inferior			R.Shank.Superior			R.Shank.Lateral			R.Shank.Inferior			R.Heel			R.Midfoot.Superior			R.Midfoot.Lateral			R.Toe			L.Heel			L.Midfoot.Lateral			L.Midfoot.Superior			L.Toe			L.Elbow			L.Wrist			R.Elbow			R.Wrist			
		X1	Y1	Z1	X2	Y2	Z2	X3	Y3	Z3	X4	Y4	Z4	X5	Y5	Z5	X6	Y6	Z6	X7	Y7	Z7	X8	Y8	Z8	X9	Y9	Z9	X10	Y10	Z10	X11	Y11	Z11	X12	Y12	Z12	X13	Y13	Z13	X14	Y14	Z14	X15	Y15	Z15	X16	Y16	Z16	X17	Y17	Z17	X18	Y18	Z18	X19	Y19	Z19	X20	Y20	Z20	X21	Y21	Z21	X22	Y22	Z22	X23	Y23	Z23	X24	Y24	Z24	X25	Y25	Z25	X26	Y26	Z26	X27	Y27	Z27	X28	Y28	Z28	X29	Y29	Z29	X30	Y30	Z30	X31	Y31	Z31	X32	Y32	Z32	X33	Y33	Z33	

71	17.375000000000	772.004750635604	1015.939178223632	414.064946310385	1022.391955218034	1436.194125865494	277.118645073018	1078.554981105805	1357.651185089582	454.987134743819	962.005923001691	1436.921390595438	605.803260152245	968.542194409048	1495.076793300707	430.327461881015	975.383231866106	944.813487952824	572.977268059155	1009.911698273803	957.202920668702	299.245508906782	1046.572580391023	770.467309575752	548.940242837059	996.773539023089	651.951909933547	618.103897534046	1085.807454223244	609.057668531977	541.800333175142	1113.713500730669	521.118639148925	564.437831018818	1027.409620267136	736.856857166023	337.056683069745	935.195464378703	626.317719588188	269.807749431795	1000.564544861125	544.992879073655	346.384505072081	992.170690823804	476.852873329958	357.326127640828	959.583928773324	407.120083361073	347.777307942910	865.604698472172	298.770553953308	293.057574458574	896.953801933609	186.988286325529	372.294195824325	1082.462196011445	432.951167312035	575.264616302481	1007.988040906682	332.684133557760	639.415847910794	1062.755652206269	234.563452234318	592.201691263043	941.771927034355	58.990017764881	566.185371156145	1109.095263494813	118.845626596406	607.283235807718	1026.083414890880	48.238825179683	638.667719801752	1230.741141517460	74.594328525540	632.022458921712	755.412196622019	38.474846502363	411.426469318597	831.171074850221	35.498105476604	332.276912542123	915.007586314784	95.432482790615	362.328368756133	1043.587862352273	41.231415964907	335.800580090434	1137.755181779304	1137.285267373348	114.869278145261	1390.391146241729	1078.411799521676	146.098292589976	786.580456215917	1127.844621006942	678.705630878802	746.142521104058	870.290605448223	692.828045600792	
72	17.393928571429	772.897479900621	1015.821284226548	414.615502213971	1024.189622196669	1435.989502210385	280.207702282485	1078.756116291274	1357.465577381465	458.565440056589	960.899954838294	1436.985696814627	608.185074959565	968.799002388531	1494.819469786373	432.907762788832	974.751578299745	943.906123715787	575.367840019945	1011.530846529915	957.061528810736	301.766298410963	1043.823993168226	767.795080732522	552.300716181401	991.175076711180	649.650832107902	620.387693377376	1080.443461205849	606.344214689460	544.755454823746	1107.697085644815	521.051225100390	566.046292188519	1025.663657511265	735.638313229006	339.084016994856	932.123029720380	626.571288398521	270.232035755781	995.383747771115	544.098977492817	346.885247074673	985.874408541813	476.391841690623	357.512402824203	953.727118598014	407.086064243002	347.752438125828	859.898788366072	298.701342058388	292.756239869929	891.064772094529	186.951195651277	372.192870144014	1081.276252241298	432.388104116024	576.815267193493	1012.539099871546	327.844803448178	641.523113937605	1072.382745771888	232.524018733417	593.674645617744	959.959820839078	51.217375772550	568.607925902579	1125.497298524183	117.820191844560	607.569521387058	1045.822011377261	43.396886215965	639.738376623047	1249.794281231852	78.530600907750	630.565722631107	749.669660770453	38.410879357583	411.339290033192	825.396355618340	35.402483454229	332.202301059952	909.204311127464	95.373570205076	362.277812482559	1037.817112179294	41.265653901719	335.848329816760	1145.050302467759	1140.383290112692	118.034256551744	1399.414365551780	1092.118314113875	151.094026827207	782.115453573961	1130.090233529564	678.783917313627	740.850270556224	872.520847252517	692.054161218992	
73	17.412857142857	774.060970263974	1015.259803967198	415.703718770148	1025.708405660175	1435.458355288841	283.468246854883	1079.034540195283	1357.028621464016	462.226850561774	960.094900735694	1436.709826868674	610.861501356400	969.064374825147	1494.263211396332	435.732656425627	974.651171708932	942.642012311997	577.909234161888	1013.294914321434	956.641527840663	304.462390862487	1041.844039364699	764.880014765388	555.737629478108	986.220588439073	646.988549917448	622.443355169514	1075.855611149880	603.447116823493	547.561252562972	1102.073425561026	520.325466223022	567.398685322423	1024.511405716606	734.298538891827	341.182718895862	929.662936134152	626.605771751083	270.942448409917	991.017213200059	543.075161466115	347.543385996422	980.495597228088	475.722101776552	357.870367494953	948.581248353526	406.821043180938	347.945908512092	854.647451921854	298.623179922469	292.638583188426	885.422539694982	186.791538891576	372.163978517100	1079.730736158749	431.296587249621	578.135709597158	1015.687897389161	323.516016828372	643.097403213698	1079.518182516971	230.695341390582	594.726262766833	973.959031642372	45.775368494068	570.377555191522	1138.122751827731	116.865680725261	607.503497227338	1060.898057529873	40.025399743767	640.374141925283	1264.064776111530	80.975105730126	628.991275597185	743.936965917056	38.347499616420	411.263511087641	819.635383968376	35.311965256907	332.139696286117	903.413593978691	95.299790220570	362.250041239727	1032.055652947765	41.256733769417	335.887296868454	1151.613369191170	1142.811808125799	121.607159776925	1407.165171264463	1104.354293700676	156.158213372448	779.168251227739	1131.313579459892	679.471266034817	737.989882316420	873.574726354512	692.048341834279	
74	17.431785714286	775.501852200418	1014.329944448082	417.341460818555	1026.957695850662	1434.673533603823	286.893985852802	1079.412989303102	1356.413986639851	465.970953118969	959.602290647207	1436.154035156449	613.844228139070	969.346111613937	1493.475267262062	438.806593745223	975.105809615879	941.126917152078	580.611553429587	1015.216593699780	956.001106721862	307.340539992310	1040.737235241465	761.891462902815	559.195546566032	982.115801806461	644.129968306902	624.237598627592	1072.250866559206	600.555118773659	550.172917201943	1097.122403358169	519.058356361804	568.507255232441	1023.964079872466	732.858701212689	343.343814691154	927.778601654082	626.453908406996	271.980559196169	987.456823930838	541.943326265052	348.384896205104	976.027550438384	474.862487314363	358.438569828542	944.126697583370	406.349364614644	348.387636058074	849.819975390991	298.570428385791	292.737352187256	880.016940569779	186.530642870684	372.219161333022	1078.025236743054	429.735695186943	579.226623257407	1017.491393851418	319.680934948256	644.131892745154	1084.211329389202	228.923170170646	595.339077648023	983.592915625336	42.326143731146	571.432041949938	1146.935280633503	115.752674267859	607.110207668651	1071.162205500833	37.850607735715	640.609662887498	1273.629390032861	81.681117015187	627.464115804901	738.212817049191	38.291703620328	411.196894599145	813.890303562924	35.232258904306	332.092089212179	897.637719969178	95.219600425125	362.243940303969	1026.304662180338	41.204121833779	335.915665174162	1157.361405861722	1144.544105145290	125.572187402806	1413.681601691101	1115.054486258863	161.242171206658	777.755059795212	1131.528233694108	680.814022571641	737.386252374734	873.494451371459	692.872954886986	
